<svg width="195" height="45" viewBox="0 0 195 45" fill="none" xmlns="http://www.w3.org/2000/svg">
<path d="M175.001 44.8006C171.416 44.8006 168.268 44.0654 165.557 42.5948C162.891 41.1242 160.823 39.0791 159.353 36.4596C157.928 33.7942 157.216 30.7841 157.216 27.4293C157.216 24.0286 157.928 20.9266 159.353 18.1232C160.777 15.274 162.822 13.0221 165.488 11.3677C168.199 9.71332 171.347 8.88611 174.932 8.88611C178.195 8.88611 181.067 9.62141 183.549 11.092C186.076 12.5166 188.029 14.4927 189.408 17.0203C190.787 19.5479 191.476 22.3742 191.476 25.4992C191.476 26.0506 191.453 26.5791 191.407 27.0846C191.407 27.5902 191.361 28.0727 191.269 28.5323H163.558V22.8107H186.168L181.894 27.7051C181.986 26.6021 182.032 25.4992 182.032 24.3962C182.032 22.7878 181.733 21.3402 181.136 20.0534C180.584 18.7666 179.757 17.7556 178.654 17.0203C177.551 16.285 176.242 15.9174 174.725 15.9174C173.071 15.9174 171.623 16.3769 170.382 17.296C169.187 18.2152 168.268 19.5249 167.625 21.2253C166.981 22.8797 166.66 24.8098 166.66 27.0157C166.66 29.3595 167.027 31.3356 167.763 32.944C168.498 34.5525 169.532 35.7703 170.865 36.5975C172.197 37.4247 173.714 37.8383 175.414 37.8383C177.436 37.8383 178.999 37.3098 180.102 36.2528C181.251 35.1499 182.17 33.7253 182.859 31.979L191.476 33.9091C190.465 37.126 188.535 39.7455 185.685 41.7676C182.882 43.7896 179.321 44.8006 175.001 44.8006Z" fill="#4A56C7"/>
<path d="M90.3835 44.8696C86.9828 44.8696 83.9037 44.1343 81.1464 42.6637C78.389 41.1472 76.2061 39.0332 74.5977 36.3218C73.0352 33.6104 72.2539 30.5313 72.2539 27.0846C72.2539 23.4082 73.0352 20.2142 74.5977 17.5028C76.1602 14.7455 78.2971 12.6315 81.0085 11.1609C83.7659 9.64438 86.8449 8.88611 90.2456 8.88611C93.049 8.88611 95.5995 9.39162 97.8973 10.4027C100.195 11.4137 102.102 12.7924 103.619 14.5387C105.135 16.2391 106.192 18.1692 106.79 20.3291L97.6905 22.535C97.2309 20.5589 96.3348 19.0194 95.0021 17.9164C93.7153 16.7675 92.0839 16.1931 90.1078 16.1931C88.4993 16.1931 87.0747 16.6527 85.8339 17.5718C84.5931 18.4909 83.628 19.7547 82.9387 21.3631C82.2953 22.9716 81.9736 24.7639 81.9736 26.74C81.9736 29.0837 82.3183 31.0828 83.0076 32.7372C83.7429 34.3457 84.7769 35.5635 86.1096 36.3907C87.4423 37.172 88.9589 37.5626 90.6592 37.5626C92.4515 37.5626 93.991 37.0341 95.2778 35.9771C96.5646 34.9201 97.5297 33.3347 98.173 31.2207L106.928 33.2887C105.917 36.7354 103.963 39.5387 101.068 41.6986C98.219 43.8126 94.6574 44.8696 90.3835 44.8696Z" fill="#4A56C7"/>
<path d="M59.9215 21.2253C59.9215 19.6628 59.416 18.4449 58.405 17.5718C57.4399 16.6527 56.0612 16.1931 54.2689 16.1931C52.5226 16.1931 51.052 16.6297 49.8572 17.5028C48.6623 18.33 49.0693 18.1621 48.1951 19.0363L40.3277 16.4138C41.2018 14.6655 42.6914 13.0242 44.4114 11.8503C47.3066 9.87416 50.7993 8.88611 54.8893 8.88611C59.393 8.88611 62.9086 9.98905 65.4362 12.1949C68.0097 14.3549 69.2965 17.4569 69.2965 21.501V44.387H59.9215V21.2253ZM47.6513 44.8696C44.7101 44.8696 42.2285 44.0883 40.2064 42.5258C38.1844 40.9633 37.1733 38.7574 37.1733 35.9082C37.1733 32.6453 38.2993 30.2326 40.5511 28.6701C42.8489 27.0617 46.4335 26.0277 51.3048 25.5681C53.5566 25.3383 55.257 25.0856 56.4059 24.8098C57.6007 24.5341 58.4739 24.1205 59.0254 23.569C59.6228 23.0175 59.9215 22.2363 59.9215 21.2253L61.5759 23.2244C61.5759 25.4302 60.9785 27.0847 59.7836 28.1876C58.5888 29.2905 56.6127 30.0028 53.8553 30.3245C52.2469 30.4624 50.9601 30.6922 49.995 31.0139C49.0759 31.3356 48.3636 31.7721 47.8581 32.3236C47.3526 32.8751 47.0998 33.6563 47.0998 34.6674C47.0998 35.8622 47.5364 36.7813 48.4096 37.4247C49.3287 38.0681 50.4776 38.3898 51.8562 38.3898C53.2349 38.3898 54.5217 38.0451 55.7165 37.3558C56.9574 36.6665 57.9684 35.6095 58.7496 34.1848C59.5309 32.7142 59.9215 30.853 59.9215 28.6012L62.2653 29.1527C62.2653 32.2777 61.6219 35.035 60.3351 37.4247C59.0943 39.8144 57.348 41.6527 55.0961 42.9394C52.8903 44.2262 50.4086 44.8696 47.6513 44.8696Z" fill="#4A56C7"/>
<path fill-rule="evenodd" clip-rule="evenodd" d="M109.401 1.3783H118.776V21.101L128.722 11.117H139.682L125.83 25.0532L141.43 44.3871H131.09L120.113 30.8049L118.776 32.1498V44.387H109.401V1.3783Z" fill="#4A56C7"/>
<path d="M18.4053 44.8696C13.2583 44.8696 9.03033 43.5368 5.72151 40.8714C2.41268 38.206 0.505515 34.5525 0 29.9109L8.7546 28.0497C8.93842 30.7611 9.78861 32.898 11.3052 34.4605C12.8217 36.023 14.8438 36.8043 17.3713 36.8043C19.807 36.8043 21.6682 36.023 22.955 34.4605C24.2877 32.8521 24.9541 30.6003 24.9541 27.705V1.3783H34.6048V28.739C34.6048 32.0479 33.9384 34.9201 32.6057 37.3558C31.3189 39.7914 29.4348 41.6526 26.9531 42.9394C24.5175 44.2262 21.6682 44.8696 18.4053 44.8696Z" fill="#4A56C7"/>
<path d="M144.541 16.3619H153.916V44.387H144.541V16.3619Z" fill="#4A56C7"/>
<path d="M155.162 5.93401L149.228 0L143.294 5.934L149.228 11.868L155.162 5.93401Z" fill="#4A56C7"/>
<path d="M186.414 2.89233L187.812 7.12396L191.43 4.5219L190.073 8.76676L194.529 8.78817L190.937 11.4249L194.529 14.0616L190.073 14.083L191.43 18.3278L187.812 15.7258L186.414 19.9574L185.017 15.7258L181.399 18.3278L182.756 14.083L178.299 14.0616L181.892 11.4249L178.299 8.78817L182.756 8.76676L181.399 4.5219L185.017 7.12396L186.414 2.89233Z" fill="#EBD070"/>
</svg>
