<svg width="580" height="138" viewBox="0 0 580 138" fill="none" xmlns="http://www.w3.org/2000/svg">
<path d="M492.529 129.947L492.535 129.951C500.729 134.395 510.215 136.6 520.964 136.6C533.905 136.6 544.664 133.57 553.17 127.437C561.773 121.331 567.621 113.4 570.681 103.664L571.007 102.626L569.945 102.388L544.442 96.6752L543.607 96.4883L543.293 97.2839C541.296 102.343 538.649 106.431 535.369 109.579C532.345 112.477 528 113.994 522.188 113.994C517.325 113.994 513.022 112.813 509.249 110.471C505.493 108.14 502.555 104.697 500.45 100.092C498.939 96.7862 497.96 92.9102 497.529 88.4496H569.115H569.934L570.095 87.6457C570.378 86.2301 570.52 84.7511 570.523 83.2106C570.659 81.6955 570.727 80.1159 570.727 78.4723C570.727 69.0703 568.651 60.5382 564.484 52.8979C560.314 45.2542 554.402 39.2718 546.764 34.9644C539.247 30.5125 530.568 28.3013 520.76 28.3013C509.991 28.3013 500.488 30.7884 492.287 35.7927L492.287 35.7927L492.28 35.7967C484.232 40.792 478.054 47.5964 473.756 56.191C469.464 64.6391 467.324 73.9765 467.324 84.1851C467.324 94.2606 469.465 103.335 473.767 111.384L473.772 111.393L473.777 111.402C478.222 119.32 484.479 125.506 492.529 129.947ZM540.301 69.5152H498.957C499.28 68.3632 499.649 67.2532 500.065 66.1849L500.065 66.185L500.068 66.1764C501.919 61.2848 504.538 57.5766 507.896 54.991C511.382 52.4111 515.452 51.1122 520.148 51.1122C524.468 51.1122 528.145 52.1572 531.223 54.2088C534.316 56.2713 536.643 59.1072 538.203 62.7479L538.209 62.7616L538.215 62.7751C539.186 64.8648 539.882 67.1103 540.301 69.5152Z" stroke="#4A56C7" stroke-width="2"/>
<path d="M242.694 130.152L242.694 130.152L242.706 130.158C251.024 134.594 260.301 136.804 270.516 136.804C283.335 136.804 294.098 133.631 302.736 127.222L302.739 127.221C311.48 120.699 317.389 112.22 320.443 101.809L320.74 100.797L319.713 100.554L293.801 94.4335L292.888 94.2178L292.615 95.1156C290.749 101.244 287.981 105.744 284.367 108.712C280.752 111.682 276.424 113.177 271.332 113.177C266.464 113.177 262.156 112.062 258.383 109.853C254.636 107.524 251.704 104.088 249.602 99.4951C247.629 94.7544 246.625 88.9809 246.625 82.1448C246.625 76.4101 247.557 71.2375 249.405 66.6132C251.385 61.9986 254.136 58.4119 257.645 55.8125C261.138 53.2253 265.144 51.9284 269.7 51.9284C275.341 51.9284 279.921 53.5619 283.52 56.775L283.534 56.7875L283.549 56.7995C287.296 59.9013 289.85 64.2517 291.169 69.9256L291.398 70.9087L292.379 70.6709L319.311 64.142L320.314 63.8987L320.039 62.9035C318.23 56.3623 315.027 50.5153 310.441 45.3712C305.848 40.084 300.08 35.9204 293.158 32.8746C286.216 29.8201 278.528 28.3013 270.108 28.3013C259.889 28.3013 250.609 30.5812 242.289 35.1566C234.097 39.6005 227.639 45.9918 222.925 54.3089C218.2 62.5098 215.856 72.1405 215.856 83.165C215.856 93.5234 218.206 102.812 222.927 111.004L222.927 111.004L222.933 111.015C227.785 119.193 234.376 125.577 242.694 130.152Z" stroke="#4A56C7" stroke-width="2"/>
<path d="M175.176 55.7331L175.193 55.7499L175.212 55.7658C177.946 58.1272 179.354 61.434 179.354 65.8225C179.354 68.6087 178.539 70.6261 177.023 72.0247L177.009 72.0382L176.995 72.0524C175.55 73.4966 173.173 74.6616 169.724 75.4576L169.724 75.4576L169.715 75.4596C166.382 76.2596 161.404 77.0024 154.752 77.6811C140.277 79.0471 129.462 82.1295 122.45 87.0372C115.463 91.8861 112.024 99.3677 112.024 109.281C112.024 117.983 115.13 124.821 121.39 129.659C127.576 134.439 135.145 136.804 144.037 136.804C152.359 136.804 159.879 134.861 166.572 130.958C171.697 128.028 175.959 124.157 179.354 119.353V134.376V135.376H180.354H208.102H209.102V134.376V66.6386C209.102 54.4434 205.211 44.9564 197.327 38.3349C189.61 31.6038 178.944 28.3013 165.46 28.3013C153.187 28.3013 142.645 31.2684 133.884 37.2486C128.669 40.808 124.138 45.7905 121.466 51.1344L120.95 52.1657L122.044 52.5303L145.33 60.2922L145.917 60.4877L146.354 60.0507C147.282 59.1225 147.789 58.518 148.137 58.1041C148.273 57.9426 148.384 57.8102 148.486 57.6988C148.868 57.2832 149.369 56.8496 151.135 55.6271L151.145 55.6198L151.156 55.6123C154.492 53.1745 158.628 51.9284 163.624 51.9284C168.762 51.9284 172.562 53.2437 175.176 55.7331ZM162.515 93.7476C169.882 92.8881 175.542 91.0824 179.351 88.2228C179.287 94.5165 178.152 99.6608 176.005 103.705C173.771 107.778 170.906 110.756 167.423 112.691L167.416 112.695L167.409 112.699C164.024 114.652 160.388 115.626 156.483 115.626C152.565 115.626 149.38 114.715 146.865 112.957C144.571 111.263 143.405 108.86 143.405 105.608C143.405 102.777 144.111 100.738 145.386 99.3469C146.741 97.8687 148.69 96.6543 151.297 95.741C154.047 94.8251 157.767 94.1551 162.485 93.7507L162.5 93.7494L162.515 93.7476Z" stroke="#4A56C7" stroke-width="2"/>
<mask id="path-4-outside-1_8_18" maskUnits="userSpaceOnUse" x="324.805" y="5.07971" width="101" height="132" fill="black">
<rect fill="white" x="324.805" y="5.07971" width="101" height="132"/>
<path fill-rule="evenodd" clip-rule="evenodd" d="M326.805 7.07971H354.553V65.4544L383.988 35.9042H416.429L375.43 77.1523L421.604 134.376H390.999L358.509 94.1761L354.553 98.1565V134.376H326.805V7.07971Z"/>
</mask>
<path d="M354.553 7.07971H356.553V5.07971H354.553V7.07971ZM326.805 7.07971V5.07971H324.805V7.07971H326.805ZM354.553 65.4544H352.553V70.2961L355.97 66.8659L354.553 65.4544ZM383.988 35.9042V33.9042H383.158L382.572 34.4927L383.988 35.9042ZM416.429 35.9042L417.848 37.3141L421.237 33.9042H416.429V35.9042ZM375.43 77.1523L374.012 75.7423L372.748 77.0134L373.874 78.4082L375.43 77.1523ZM421.604 134.376V136.376H425.787L423.16 133.12L421.604 134.376ZM390.999 134.376L389.444 135.633L390.044 136.376H390.999V134.376ZM358.509 94.1761L360.064 92.9189L358.663 91.1845L357.091 92.7662L358.509 94.1761ZM354.553 98.1565L353.134 96.7466L352.553 97.3316V98.1565H354.553ZM354.553 134.376V136.376H356.553V134.376H354.553ZM326.805 134.376H324.805V136.376H326.805V134.376ZM354.553 5.07971H326.805V9.07971H354.553V5.07971ZM356.553 65.4544V7.07971H352.553V65.4544H356.553ZM382.572 34.4927L353.136 64.0429L355.97 66.8659L385.405 37.3157L382.572 34.4927ZM416.429 33.9042H383.988V37.9042H416.429V33.9042ZM376.849 78.5622L417.848 37.3141L415.011 34.4943L374.012 75.7423L376.849 78.5622ZM373.874 78.4082L420.047 135.632L423.16 133.12L376.987 75.8963L373.874 78.4082ZM421.604 132.376H390.999V136.376H421.604V132.376ZM392.555 133.119L360.064 92.9189L356.954 95.4333L389.444 135.633L392.555 133.119ZM355.971 99.5664L359.927 95.586L357.091 92.7662L353.134 96.7466L355.971 99.5664ZM356.553 134.376V98.1565H352.553V134.376H356.553ZM326.805 136.376H354.553V132.376H326.805V136.376ZM324.805 7.07971V134.376H328.805V7.07971H324.805Z" fill="#4A56C7" mask="url(#path-4-outside-1_8_18)"/>
<path d="M2.79205 90.5519L1.90803 90.7398L2.00588 91.6383C3.52765 105.611 9.28611 116.677 19.3071 124.749C29.3135 132.81 42.0633 136.804 57.4758 136.804C67.2645 136.804 75.8625 134.874 83.239 130.978C90.7581 127.078 96.4819 121.427 100.386 114.039C104.423 106.658 106.423 97.9878 106.423 88.0615V7.07971V6.07971H105.423H76.8586H75.8586V7.07971V85.0011C75.8586 93.4266 73.9192 99.8351 70.1717 104.358L70.1698 104.36C66.5901 108.707 61.3927 110.933 54.4153 110.933C47.1574 110.933 41.4481 108.699 37.1784 104.299C32.8924 99.8836 30.4416 93.803 29.9094 85.9536L29.8314 84.8034L28.7038 85.0431L2.79205 90.5519Z" stroke="#4A56C7" stroke-width="2"/>
<path d="M430.809 50.428H429.809V51.428V134.376V135.376H430.809H458.557H459.557V134.376V51.428V50.428H458.557H430.809Z" stroke="#4A56C7" stroke-width="2"/>
<path d="M462.953 21.2705L463.66 20.5634L462.953 19.8563L445.39 2.29289L444.683 1.58579L443.976 2.29289L426.412 19.8562L425.705 20.5634L426.412 21.2705L443.976 38.8338L444.683 39.5409L445.39 38.8338L462.953 21.2705Z" stroke="#4A56C7" stroke-width="2"/>
<path d="M554.746 11.5609L558.882 24.0855L569.59 16.384L565.574 28.9479L578.764 29.0112L568.131 36.8153L578.764 44.6194L565.574 44.6827L569.59 57.2466L558.882 49.5451L554.746 62.0698L550.61 49.5451L539.901 57.2466L543.917 44.6827L530.727 44.6194L541.361 36.8153L530.727 29.0112L543.917 28.9479L539.901 16.384L550.61 24.0855L554.746 11.5609Z" fill="#EBD070"/>
</svg>
