<svg width="136" height="580" viewBox="0 0 136 580" fill="none" xmlns="http://www.w3.org/2000/svg">
<path d="M128.591 88.2744L128.593 88.2707C132.999 80.1456 135.193 70.7281 135.193 60.036C135.193 47.1581 132.179 36.4874 126.105 28.0667C120.049 19.533 112.191 13.7399 102.542 10.7074L101.926 10.514L101.785 11.1434L96.0725 36.6471L95.9617 37.1419L96.4334 37.3281C101.537 39.3427 105.677 42.0195 108.873 45.3484C111.865 48.4705 113.401 52.9291 113.401 58.8118C113.401 63.7437 112.202 68.1223 109.817 71.9651C107.438 75.7982 103.929 78.7857 99.2609 80.9198C95.7967 82.5035 91.7269 83.5064 87.0425 83.9173L87.0424 11.8851L87.0424 11.3991L86.5658 11.3037C85.1727 11.0251 83.7144 10.8858 82.1919 10.8842C80.6845 10.748 79.1112 10.6801 77.4723 10.6801C68.1325 10.6801 59.6683 12.7413 52.0928 16.8734C44.5154 21.0066 38.5874 26.8653 34.317 34.4395C29.9054 41.8864 27.7084 50.4929 27.7084 60.24C27.7084 70.9441 30.1797 80.3712 35.1402 88.5008L35.1402 88.5009L35.1426 88.5047C40.0978 96.488 46.8454 102.615 55.3743 106.88C63.7609 111.142 73.0348 113.268 83.1851 113.268C93.2011 113.268 102.208 111.141 110.192 106.873L110.192 106.874L110.203 106.868C118.054 102.46 124.185 96.2588 128.591 88.2744ZM68.9223 40.2181L68.9223 82.5764C67.5725 82.2176 66.2776 81.7968 65.0374 81.3145L65.0323 81.3126C60.0832 79.44 56.3065 76.7795 53.666 73.3487C51.0289 69.7868 49.7051 65.6294 49.7051 60.8521C49.7051 56.4632 50.7676 52.7049 52.87 49.5514C54.9789 46.3881 57.8785 44.012 61.5875 42.4224L61.5957 42.4189L61.6037 42.4152C63.8659 41.3648 66.3046 40.6315 68.9223 40.2181Z" stroke="#212442" stroke-width="1.18575"/>
<path d="M128.795 338.11L128.799 338.103C133.201 329.848 135.397 320.638 135.397 310.484C135.397 297.734 132.242 287.061 125.895 278.506L125.894 278.505C119.425 269.833 111.02 263.977 100.694 260.948L100.094 260.772L99.9506 261.381L93.8297 287.292L93.7018 287.834L94.2341 287.996C100.415 289.877 104.993 292.681 108.027 296.374C111.061 300.068 112.585 304.489 112.585 309.668C112.585 314.603 111.452 318.985 109.201 322.828C106.824 326.655 103.319 329.639 98.6579 331.772C93.8538 333.772 88.022 334.783 81.1448 334.783C75.3637 334.783 70.1373 333.842 65.4575 331.971C60.7834 329.967 57.134 327.173 54.4853 323.597C51.8439 320.031 50.5212 315.939 50.5212 311.3C50.5212 305.574 52.182 300.893 55.4713 297.209L55.4788 297.201L55.4858 297.192C58.6539 293.364 63.0883 290.771 68.8333 289.434L69.4162 289.299L69.2752 288.717L62.7463 261.785L62.6021 261.191L62.0121 261.354C55.5312 263.146 49.7387 266.319 44.64 270.865C39.401 275.416 35.2713 281.133 32.2472 288.006C29.218 294.891 27.7084 302.522 27.7084 310.892C27.7084 321.049 29.9738 330.261 34.5139 338.516C38.9207 346.64 45.2572 353.044 53.5108 357.722C61.6402 362.406 71.1986 364.737 82.165 364.737C92.4595 364.737 101.677 362.402 109.801 357.72L109.807 357.717C117.923 352.902 124.255 346.364 128.795 338.11Z" stroke="#212442" stroke-width="1.18575"/>
<path d="M54.4383 405.543L54.4482 405.533L54.4576 405.522C56.9099 402.683 60.3378 401.239 64.8225 401.239C67.6926 401.239 69.8301 402.082 71.3238 403.7L71.3319 403.709L71.3402 403.718C72.861 405.238 74.0501 407.7 74.8543 411.185L74.8555 411.19C75.6621 414.55 76.407 419.551 77.0863 426.207C78.4499 440.659 81.5232 451.39 86.3709 458.317C91.1285 465.173 98.4715 468.568 108.281 468.568C116.873 468.568 123.586 465.509 128.337 459.361C133.053 453.257 135.397 445.779 135.397 436.963C135.397 428.707 133.47 421.258 129.605 414.632C126.49 409.18 122.297 404.715 117.036 401.239L133.376 401.239L133.969 401.239L133.969 400.646L133.969 372.898L133.969 372.305L133.376 372.305L65.6386 372.305C53.5353 372.305 44.1727 376.162 37.6443 383.938C30.9954 391.559 27.7084 402.119 27.7084 415.54C27.7084 427.745 30.6581 438.203 36.5848 446.887C40.1098 452.051 45.0415 456.532 50.3164 459.17L50.9279 459.475L51.144 458.827L58.906 435.541L59.0219 435.193L58.7628 434.934C57.8479 434.019 57.2765 433.54 56.8643 433.194C56.6946 433.051 56.5519 432.931 56.4233 432.813C55.9712 432.398 55.5156 431.864 54.2924 430.097L54.2881 430.09L54.2836 430.084C51.7861 426.667 50.5212 422.443 50.5212 417.376C50.5212 412.17 51.8548 408.256 54.4383 405.543ZM86.3797 401.239L86.6536 401.239C93.2525 401.239 98.6569 402.384 102.899 404.636C107.03 406.902 110.069 409.819 112.047 413.38L112.047 413.38L112.052 413.388C114.04 416.834 115.033 420.541 115.033 424.517C115.033 428.501 114.105 431.774 112.288 434.373C110.508 436.785 107.976 438.002 104.608 438.002C101.711 438.002 99.5611 437.279 98.0718 435.914C96.5309 434.501 95.2848 432.487 94.3557 429.834C93.4251 427.041 92.7509 423.285 92.345 418.55L92.3443 418.541L92.3432 418.532C91.4351 410.748 89.4727 404.95 86.3797 401.239Z" stroke="#212442" stroke-width="1.18575"/>
<mask id="path-4-outside-1_26_40" maskUnits="userSpaceOnUse" x="4.07959" y="156.195" width="131" height="100" fill="black">
<rect fill="white" x="4.07959" y="156.195" width="131" height="100"/>
<path fill-rule="evenodd" clip-rule="evenodd" d="M6.07959 254.195L6.07959 226.447L64.4543 226.447L34.9041 197.011L34.9041 164.571L76.1521 205.57L133.376 159.396L133.376 190L93.176 222.491L97.1564 226.447L133.376 226.447L133.376 254.195L6.07959 254.195Z"/>
</mask>
<path d="M6.07959 226.447L6.07959 225.261L4.89383 225.261L4.89383 226.447L6.07959 226.447ZM6.07959 254.195L4.89384 254.195L4.89384 255.381L6.07959 255.381L6.07959 254.195ZM64.4543 226.447L64.4543 227.633L67.3248 227.633L65.2911 225.607L64.4543 226.447ZM34.9041 197.011L33.7183 197.011L33.7183 197.504L34.0672 197.851L34.9041 197.011ZM34.9041 164.571L35.74 163.73L33.7183 161.72L33.7183 164.571L34.9041 164.571ZM76.1521 205.57L75.3162 206.411L76.0698 207.16L76.8967 206.493L76.1521 205.57ZM133.376 159.396L134.562 159.396L134.562 156.916L132.631 158.473L133.376 159.396ZM133.376 190L134.121 190.923L134.562 190.567L134.562 190L133.376 190ZM93.176 222.491L92.4306 221.569L91.4023 222.4L92.3401 223.332L93.176 222.491ZM97.1564 226.447L96.3205 227.288L96.6673 227.633L97.1564 227.633L97.1564 226.447ZM133.376 226.447L134.562 226.447L134.562 225.261L133.376 225.261L133.376 226.447ZM133.376 254.195L133.376 255.381L134.562 255.381L134.562 254.195L133.376 254.195ZM4.89383 226.447L4.89384 254.195L7.26534 254.195L7.26534 226.447L4.89383 226.447ZM64.4543 225.261L6.07959 225.261L6.07959 227.633L64.4543 227.633L64.4543 225.261ZM34.0672 197.851L63.6175 227.287L65.2911 225.607L35.7409 196.171L34.0672 197.851ZM33.7183 164.571L33.7183 197.011L36.0898 197.011L36.0898 164.571L33.7183 164.571ZM76.9881 204.729L35.74 163.73L34.0682 165.412L75.3162 206.411L76.9881 204.729ZM76.8967 206.493L134.121 160.319L132.631 158.473L75.4075 204.647L76.8967 206.493ZM132.19 159.396L132.19 190L134.562 190L134.562 159.396L132.19 159.396ZM132.631 189.078L92.4306 221.569L93.9213 223.413L134.121 190.923L132.631 189.078ZM97.9923 225.606L94.0119 221.65L92.3401 223.332L96.3205 227.288L97.9923 225.606ZM133.376 225.261L97.1564 225.261L97.1564 227.633L133.376 227.633L133.376 225.261ZM134.562 254.195L134.562 226.447L132.19 226.447L132.19 254.195L134.562 254.195ZM6.07959 255.381L133.376 255.381L133.376 253.009L6.07959 253.009L6.07959 255.381Z" fill="#212442" mask="url(#path-4-outside-1_26_40)"/>
<path d="M89.95 578.123L90.0614 578.647L90.5941 578.589C104.471 577.078 115.434 571.366 123.432 561.438C131.423 551.518 135.397 538.864 135.397 523.524C135.397 513.789 133.477 505.258 129.617 497.95C125.754 490.501 120.161 484.838 112.846 480.972C105.535 476.973 96.9336 474.984 87.0614 474.984L6.07959 474.984L5.48671 474.984L5.48671 475.577L5.48671 504.141L5.48671 504.734L6.07959 504.734L84.001 504.734C92.485 504.734 98.9979 506.687 103.618 510.515L103.619 510.516C108.079 514.189 110.34 519.513 110.34 526.585C110.34 533.933 108.074 539.755 103.583 544.114C99.082 548.482 92.902 550.96 84.981 551.497L84.2991 551.543L84.4412 552.212L89.95 578.123Z" stroke="#212442" stroke-width="1.18575"/>
<path d="M49.8353 150.191L49.8353 150.784L50.4282 150.784L133.376 150.784L133.969 150.784L133.969 150.191L133.969 122.443L133.969 121.851L133.376 121.851L50.4282 121.851L49.8353 121.851L49.8353 122.443L49.8353 150.191Z" stroke="#212442" stroke-width="1.18575"/>
<path d="M19.9826 118.335L19.5634 117.916L19.1441 118.335L1.58077 135.898L1.16155 136.318L1.58077 136.737L19.1441 154.3L19.5634 154.719L19.9826 154.3L37.5459 136.737L37.9652 136.317L37.5459 135.898L19.9826 118.335Z" stroke="#212442" stroke-width="1.18575"/>
<path d="M11.5964 25.9144L24.3229 22.4486L17.2005 11.347L29.5336 16.0237L30.2967 2.85576L37.5255 13.8884L45.8828 3.68397L45.2462 16.8586L58.0055 13.5153L49.7466 23.7996L62.0342 28.5945L49.3076 32.0602L56.4301 43.1619L44.097 38.4852L43.3339 51.6531L36.1051 40.6204L27.7477 50.8249L28.3844 37.6503L15.6251 40.9936L23.884 30.7093L11.5964 25.9144Z" fill="#EBD070"/>
</svg>
