<svg width="156" height="37" viewBox="0 0 156 37" fill="none" xmlns="http://www.w3.org/2000/svg">
<path d="M139.965 36.2493C137.098 36.2493 134.58 35.6612 132.411 34.4851C130.28 33.3089 128.626 31.6733 127.449 29.5782C126.31 27.4464 125.74 25.039 125.74 22.3558C125.74 19.6359 126.31 17.1549 127.449 14.9129C128.589 12.634 130.225 10.833 132.356 9.50985C134.525 8.18666 137.043 7.52506 139.91 7.52506C142.519 7.52506 144.816 8.11315 146.801 9.28932C148.823 10.4287 150.385 12.0092 151.487 14.0307C152.59 16.0523 153.141 18.3127 153.141 20.8121C153.141 21.2532 153.123 21.6759 153.086 22.0802C153.086 22.4845 153.05 22.8704 152.976 23.2379H130.813V18.6619H148.896L145.478 22.5764C145.551 21.6942 145.588 20.8121 145.588 19.93C145.588 18.6435 145.349 17.4857 144.871 16.4566C144.43 15.4275 143.769 14.6188 142.887 14.0307C142.005 13.4427 140.957 13.1486 139.744 13.1486C138.421 13.1486 137.263 13.5162 136.271 14.2513C135.315 14.9864 134.58 16.0339 134.065 17.3939C133.551 18.7171 133.294 20.2608 133.294 22.025C133.294 23.8995 133.588 25.48 134.176 26.7665C134.764 28.0529 135.591 29.0269 136.657 29.6885C137.723 30.3501 138.936 30.6809 140.295 30.6809C141.913 30.6809 143.162 30.2582 144.044 29.4128C144.963 28.5307 145.698 27.3913 146.25 25.9946L153.141 27.5383C152.333 30.1112 150.789 32.2062 148.51 33.8235C146.268 35.4407 143.42 36.2493 139.965 36.2493Z" fill="#4A56C7"/>
<path d="M72.2887 36.3045C69.5688 36.3045 67.1062 35.7164 64.9009 34.5402C62.6955 33.3273 60.9497 31.6365 59.6632 29.468C58.4135 27.2994 57.7887 24.8368 57.7887 22.0802C57.7887 19.1397 58.4135 16.5852 59.6632 14.4167C60.9129 12.2114 62.622 10.5206 64.7906 9.34445C66.9959 8.13152 69.4585 7.52506 72.1784 7.52506C74.4205 7.52506 76.4604 7.92937 78.2982 8.73799C80.1359 9.5466 81.6613 10.6493 82.8742 12.046C84.0871 13.4059 84.9325 14.9496 85.4103 16.6771L78.1328 18.4414C77.7652 16.8609 77.0485 15.6296 75.9826 14.7475C74.9534 13.8286 73.6486 13.3692 72.0681 13.3692C70.7817 13.3692 69.6423 13.7367 68.6499 14.4718C67.6575 15.2069 66.8856 16.2177 66.3343 17.5041C65.8197 18.7906 65.5624 20.224 65.5624 21.8045C65.5624 23.679 65.8381 25.2779 66.3894 26.6011C66.9775 27.8875 67.8045 28.8615 68.8704 29.5231C69.9363 30.1479 71.1493 30.4604 72.5092 30.4604C73.9427 30.4604 75.174 30.0377 76.2031 29.1923C77.2323 28.3469 78.0041 27.0789 78.5187 25.3881L85.5206 27.0421C84.712 29.7988 83.1499 32.0408 80.8343 33.7683C78.5554 35.4591 75.7069 36.3045 72.2887 36.3045Z" fill="#4A56C7"/>
<path d="M47.9248 17.3939C47.9248 16.1442 47.5205 15.1702 46.7119 14.4718C45.94 13.7367 44.8374 13.3692 43.4039 13.3692C42.0072 13.3692 40.831 13.7183 39.8754 14.4167C38.9198 15.0783 39.2453 14.944 38.5461 15.6431L32.2538 13.5457C32.9529 12.1474 34.1443 10.8347 35.5199 9.89578C37.8355 8.3153 40.6289 7.52506 43.9001 7.52506C47.5021 7.52506 50.3139 8.40719 52.3354 10.1714C54.3937 11.8989 55.4229 14.3799 55.4229 17.6144V35.9185H47.9248V17.3939ZM38.1112 36.3045C35.7588 36.3045 33.774 35.6796 32.1568 34.4299C30.5396 33.1803 29.7309 31.416 29.7309 29.1372C29.7309 26.5275 30.6314 24.5979 32.4325 23.3482C34.2702 22.0618 37.1371 21.2348 41.0332 20.8672C42.8342 20.6835 44.1942 20.4813 45.113 20.2608C46.0687 20.0402 46.767 19.7094 47.2081 19.2684C47.6859 18.8273 47.9248 18.2025 47.9248 17.3939L49.248 18.9927C49.248 20.757 48.7702 22.0802 47.8145 22.9623C46.8589 23.8444 45.2784 24.4141 43.0731 24.6714C41.7867 24.7817 40.7575 24.9654 39.9857 25.2227C39.2506 25.48 38.6809 25.8292 38.2766 26.2703C37.8722 26.7113 37.6701 27.3362 37.6701 28.1448C37.6701 29.1004 38.0193 29.8355 38.7176 30.3501C39.4527 30.8647 40.3716 31.122 41.4743 31.122C42.5769 31.122 43.6061 30.8463 44.5617 30.295C45.5541 29.7436 46.3627 28.8983 46.9876 27.7589C47.6124 26.5827 47.9248 25.0941 47.9248 23.2931L49.7993 23.7341C49.7993 26.2335 49.2848 28.4388 48.2556 30.3501C47.2632 32.2614 45.8665 33.7316 44.0655 34.7607C42.3013 35.7899 40.3165 36.3045 38.1112 36.3045Z" fill="#4A56C7"/>
<path d="M87.4994 1.5203H94.9975V17.2945L102.952 9.30925H111.718L100.639 20.4555L113.116 35.9184H104.846L96.0666 25.0557L94.9975 26.1313V35.9185H87.4994V1.5203Z" fill="#4A56C7"/>
<path d="M14.7205 36.3044C10.6039 36.3044 7.22242 35.2385 4.57603 33.1067C1.92965 30.9749 0.404308 28.0529 0 24.3406L7.00188 22.852C7.1489 25.0206 7.82888 26.7297 9.0418 27.9794C10.2547 29.229 11.872 29.8539 13.8935 29.8539C15.8415 29.8539 17.3301 29.229 18.3593 27.9794C19.4252 26.6929 19.9581 24.8919 19.9581 22.5763V1.52035H27.6767V23.4033C27.6767 26.0497 27.1438 28.3469 26.0779 30.295C25.0487 32.243 23.5418 33.7316 21.557 34.7607C19.6089 35.7899 17.3301 36.3044 14.7205 36.3044Z" fill="#4A56C7"/>
<path d="M115.603 13.5042H123.101V35.9185H115.603V13.5042Z" fill="#4A56C7"/>
<path d="M124.098 5.1639L119.352 0.417908L114.606 5.16389L119.352 9.90988L124.098 5.1639Z" fill="#4A56C7"/>
<path d="M149.185 3.01104L150.122 6.45002L153.122 4.52538L151.858 7.85803L155.416 8.06425L152.435 10.0176L155.192 12.276L151.632 12.1039L152.536 15.5517L149.757 13.32L148.461 16.6404L147.525 13.2014L144.525 15.126L145.788 11.7934L142.23 11.5872L145.211 9.63379L142.454 7.37547L146.014 7.54749L145.111 4.09968L147.89 6.3314L149.185 3.01104Z" fill="#EBD070"/>
</svg>
